<svg width="160" height="36" fill="none" xmlns="http://www.w3.org/2000/svg"><path d="M12.055 13.632c-.33-.33-.79-.33-1.054 0l-2.767 2.77c-.33.329-.33.79 0 1.054l7.049 7.055c.33.33.79.33 1.054 0l20.42-20.44c.33-.33.33-.79 0-1.055L33.992.247c-.33-.33-.79-.33-1.054 0l-5.006 5.011A17.022 17.022 0 0017.193 1.5H6.258C2.833 1.5 0 4.335 0 7.764v21.89a6.258 6.258 0 006.258 6.264H16.93c9.551 0 17.588-7.847 17.456-17.407 0-2.11-.46-4.154-1.185-6.066-.132-.396-.66-.462-.989-.198l-3.425 3.429a.512.512 0 00-.132.527c.198.791.264 1.649.264 2.572 0 6.527-5.468 11.736-11.99 11.736H6.259a.872.872 0 01-.856-.857V7.764c0-.462.395-.857.856-.857h10.935c2.57 0 4.94.79 6.851 2.175L15.81 17.39l-3.755-3.758z" fill="#FAD130"/><path fill-rule="evenodd" clip-rule="evenodd" d="M64.31 3.899c-1.918-2.14-4.33-2.415-6.195-2.415h-4.221c-1.097 0-1.92.823-1.92 1.92v11.47c0 1.043.878 1.921 1.92 1.921h3.892c1.7 0 4.222-.22 6.196-2.03 1.48-1.372 2.193-3.238 2.193-5.598 0-2.195-.603-3.951-1.864-5.268zm-3.07 2.195c.658.713.987 1.701.987 3.018 0 1.317-.383 2.305-1.041 3.018-.823.824-1.974 1.208-3.619 1.208h-1.754V4.887h1.809c1.645 0 2.851.439 3.619 1.207z" fill="#0A578C"/><path d="M72.151 3.185c0-1.042-.877-1.92-1.919-1.92a1.908 1.908 0 00-1.919 1.92V15.04c0 1.043.878 1.92 1.92 1.92a1.944 1.944 0 001.918-1.92V3.185zm13.707 8.891c0-1.592-.603-2.8-1.864-3.677-.987-.714-2.138-1.043-3.235-1.317a5.759 5.759 0 00-.432-.123c-.177-.046-.347-.09-.5-.152-1.096-.384-1.535-.713-1.535-1.152 0-.22 0-.933 1.7-.933.685 0 1.18.19 1.675.381.1.038.198.076.299.113l.113.05c.449.202.865.389 1.422.389 1.041 0 1.864-.823 1.864-1.811 0-.604-.274-1.372-1.59-1.92-1.261-.55-2.906-.604-3.564-.604-3.618 0-5.867 1.7-5.867 4.445 0 1.646.658 2.853 1.974 3.731.878.55 1.92.878 2.797 1.153.383.11.767.22 1.096.33 1.042.383 1.535.767 1.535 1.316 0 1.043-.987 1.262-1.864 1.262-.951 0-1.583-.32-2.186-.627l-.171-.086c-.494-.274-.933-.494-1.426-.494a1.85 1.85 0 00-1.864 1.866c0 .878.548 1.537 1.645 2.03 1.096.494 2.631.769 4.002.769 3.564 0 5.976-1.976 5.976-4.94zm14.365 2.414c.055-1.097-.767-1.866-1.809-1.866-.322 0-.584.089-.853.18-.097.032-.196.066-.298.095-.494.22-1.097.439-2.248.439-2.358 0-4.058-1.811-4.058-4.226 0-2.36 1.81-4.225 4.058-4.225.965 0 1.46.188 1.876.347l.097.037c.33.164.713.274 1.152.274 1.042 0 1.81-.768 1.81-1.81 0-.824-.549-1.483-1.481-1.867-1.042-.384-2.084-.548-3.4-.548-4.495 0-8.169 3.512-8.169 7.792 0 4.61 3.345 7.848 8.115 7.848 1.316 0 2.577-.22 3.673-.604.932-.384 1.535-1.098 1.535-1.866z" fill="#0A578C"/><path fill-rule="evenodd" clip-rule="evenodd" d="M117.165 9.112c0-4.555-3.399-7.847-8.114-7.847-4.715 0-8.115 3.292-8.115 7.847 0 4.5 3.4 7.793 8.115 7.793s8.114-3.293 8.114-7.793zm-4.057.055c0 2.36-1.7 4.116-4.057 4.116-2.358 0-4.058-1.756-4.058-4.116 0-2.36 1.755-4.17 4.058-4.17s4.057 1.81 4.057 4.17z" fill="#0A578C"/><path d="M131.475 3.24c.055-1.152-.822-1.975-1.919-1.975-.877 0-1.644.494-1.919 1.262l-3.234 8.89-3.18-8.78c-.275-.824-.987-1.317-1.865-1.317-1.096 0-1.973.823-1.973 1.92 0 .22.054.44.109.659l4.277 11.25c.438 1.207 1.371 1.81 2.577 1.81s2.138-.713 2.577-1.81l4.441-11.25c.109-.22.109-.44.109-.659zm5.209 1.756h6.415c.932 0 1.7-.768 1.7-1.756s-.768-1.756-1.7-1.756h-8.334c-1.096 0-1.919.823-1.919 1.92v11.47c0 1.043.877 1.921 1.919 1.921h8.334c.932 0 1.7-.768 1.7-1.756s-.768-1.756-1.7-1.756h-6.415v-2.36h5.318c.933 0 1.7-.768 1.7-1.756s-.767-1.756-1.7-1.756h-5.318V4.996zM63.532 20.79a10.342 10.342 0 00-3.378-.533c-4.446 0-8.18 3.47-8.18 7.83 0 4.627 3.29 7.83 8.09 7.83 1.334 0 2.49-.177 3.646-.622.978-.445 1.6-1.157 1.6-2.047a2.013 2.013 0 00-2.045-2.046c-.31 0-.578.086-.832.17-.11.035-.217.07-.324.096-.444.267-.977.445-2.044.445-2.134 0-3.734-1.601-3.734-3.915 0-2.225 1.6-3.915 3.734-3.915.978 0 1.422.178 1.867.356.355.178.71.267 1.244.267 1.156 0 1.956-.89 1.956-1.958 0-.89-.622-1.602-1.6-1.957zm43.925.138c-1.252-.546-2.886-.6-3.539-.6-3.595 0-5.828 1.69-5.828 4.415 0 1.636.654 2.835 1.961 3.707.871.545 1.906.872 2.777 1.145.382.108.763.218 1.09.327 1.034.381 1.524.763 1.524 1.308 0 1.036-.98 1.253-1.851 1.253-.945 0-1.572-.318-2.172-.622a6.78 6.78 0 00-.17-.086c-.49-.273-.926-.49-1.416-.49a1.837 1.837 0 00-1.852 1.853c0 .872.545 1.526 1.634 2.016 1.089.491 2.614.764 3.976.764 3.54 0 5.936-1.963 5.936-4.906 0-1.581-.599-2.78-1.852-3.652-.98-.709-2.124-1.036-3.213-1.309a6.408 6.408 0 00-.429-.122 4.22 4.22 0 01-.497-.15c-1.089-.382-1.525-.709-1.525-1.145 0-.218 0-.926 1.689-.926.68 0 1.172.189 1.664.378.098.038.196.076.296.112l.113.05c.446.2.859.386 1.412.386 1.035 0 1.852-.817 1.852-1.799 0-.6-.273-1.362-1.58-1.907z" fill="#0A578C"/><path fill-rule="evenodd" clip-rule="evenodd" d="M93.937 21.451c-.926-.708-2.233-1.035-3.867-1.035h-4.955c-1.09 0-1.906.817-1.906 1.907v11.61a1.93 1.93 0 001.906 1.909 1.93 1.93 0 001.906-1.908v-3.325h2.287l2.832 4.306c.381.6.926.872 1.634.872 1.089 0 1.906-.872 1.906-1.962 0-.382-.11-.709-.327-1.036l-2.015-2.998c.218-.163.436-.327.708-.49 1.144-.982 1.743-2.29 1.743-3.816 0-1.69-.654-3.162-1.852-4.034zm-6.862 2.344h2.778c.599 0 1.089.11 1.416.327.38.273.599.763.599 1.363 0 .654-.218 1.09-.654 1.417-.327.218-.762.273-1.416.273h-2.723v-3.38zm-10.06-1.67c-.444-1.246-1.333-1.957-2.667-1.957-1.333 0-2.133.623-2.667 1.957l-4 10.945c-.09.267-.178.534-.178.801 0 1.157.889 1.958 2.044 1.958.978 0 1.779-.534 2.045-1.424l.534-1.602h4.178l.533 1.602c.267.89.978 1.424 2.045 1.424 1.245 0 2.134-.801 2.134-1.958 0-.267-.09-.712-.178-.89l-3.823-10.856zm-3.907 6.802l1.206-3.403 1.097 3.403h-2.303zm84.466-26.4c-.932-.714-2.248-1.043-3.893-1.043h-4.99c-1.096 0-1.918.823-1.918 1.92v11.69c0 1.043.877 1.92 1.918 1.92a1.943 1.943 0 001.919-1.92v-3.348h2.303l2.851 4.336c.384.603.932.878 1.645.878 1.097 0 1.919-.878 1.919-1.976 0-.384-.109-.713-.329-1.043l-2.028-3.018c.219-.164.438-.33.712-.494 1.152-.988 1.755-2.305 1.755-3.841 0-1.701-.658-3.183-1.864-4.061zm-6.909 2.36h2.797c.603 0 1.096.11 1.425.329.384.274.603.768.603 1.372 0 .658-.219 1.097-.658 1.427-.329.22-.767.274-1.425.274h-2.742V4.887z" fill="#0A578C"/><path d="M135.823 31.443c.867 0 1.437-.616 1.437-1.414v-3.992c0-.798-.57-1.414-1.437-1.414h-.16c-.866 0-1.437.616-1.437 1.414v3.992c0 .798.571 1.414 1.437 1.414h.16z" fill="#0A578C"/><path fill-rule="evenodd" clip-rule="evenodd" d="M114 22a2 2 0 012-2h42a2 2 0 012 2v12a2 2 0 01-2 2h-42a2 2 0 01-2-2V22zm12.419 2.623c.981 0 1.3.798 1.346 1.277.091.89.661 1.186 1.345 1.186.593 0 1.3-.41 1.3-1.277 0-1.939-1.642-3.695-3.991-3.695h-.091c-2.167 0-3.946 1.505-3.946 3.9v4.037c0 2.372 1.779 3.9 3.946 3.9h.091c2.76 0 3.991-2.212 3.991-3.535 0-.798-.479-1.414-1.345-1.414-.662 0-1.186.388-1.3 1.186-.069.456-.297 1.255-1.346 1.255h-.091c-.799 0-1.346-.548-1.346-1.392v-4.037c0-.798.547-1.391 1.346-1.391h.091zm-6.77 9.329c.798 0 1.437-.593 1.437-1.369v-.41c0-.776-.639-1.369-1.437-1.369s-1.437.593-1.437 1.369v.41c0 .776.639 1.369 1.437 1.369zm11.977-7.938c0-2.395 1.802-3.9 4.037-3.9h.16c2.235 0 4.037 1.505 4.037 3.9v4.037c0 2.372-1.802 3.9-4.037 3.9h-.16c-2.235 0-4.037-1.528-4.037-3.9v-4.037zm15.666 6.683c0 .707.57 1.255 1.3 1.255.73 0 1.3-.548 1.3-1.255v-6.66c0-.798.57-1.414 1.437-1.414h.16c.867 0 1.437.616 1.437 1.414v6.66c0 .707.57 1.255 1.3 1.255.73 0 1.3-.548 1.3-1.255v-6.683c0-2.395-1.688-3.9-3.741-3.9h-.091c-1.254 0-2.121.228-3.056.912-.662-.593-1.528-.912-2.486-.912h-.092c-.684 0-1.414.183-1.961.662a1.343 1.343 0 00-1.141-.662c-.707 0-1.3.547-1.3 1.255v9.328c0 .707.571 1.255 1.3 1.255.73 0 1.301-.548 1.301-1.255v-6.774c.045-.73.615-1.3 1.437-1.3h.159c.867 0 1.437.616 1.437 1.414v6.66z" fill="#0A578C"/></svg>